# xmcd
#
# Track frame offsets:
#	150
#	13750
#	26347
#	40947
#	53387
#	67002
#	78182
#	89260
#	102362
#	114955
#	127747
#	139255
#	149767
#	161310
#	174455
#	190650
#	204070
#	250945
#
# Disc length: 3686 seconds
#
# Revision: 17
# Processed by: cddbd v1.5.2PL0 Copyright (c) Steve Scherf et al.
# Submitted via: audiograbber 1.83.01
#
DISCID=e10e6412
DTITLE=Various Artist - Blues Masters, The Essential Urban Collection - Volume 3, Texa
DTITLE=s Blues
DYEAR=1992
DGENRE=Blues
TTITLE0=Blind Lemon Jefferson - matchbox blues
TTITLE1=Lillian Glinn - Cravin a man blues
TTITLE2=Charles Brown - Driftin' Blues
TTITLE3=Lightin' Hopkins - Short-Haired Woman
TTITLE4=T-Bone Wa;ker - Call it Stormy Monday
TTITLE5=Frankie Lee Simms - Lucky Mae Blues
TTITLE6=Pee Wee Crayton - Texas Hop
TTITLE7=Percy Mayfield - Please Send Me Someone to Love
TTITLE8=Zu Zu Bollin - Why don't you eat where you slept last night
TTITLE9=Willi Mae "Big Mama" Thornton - Hound dog
TTITLE10=Clarence "Gatemouth" Brown - Okie Dokie Stomp
TTITLE11=Albert Collins and his Rhythm Rockers - The Freeze
TTITLE12=Mance Lipscomb - Ella Speed
TTITLE13=Johnny Copeland - Down On Bended Knees
TTITLE14=Freddy King - The Stumble
TTITLE15=The Fabulous Thunderbirds - C-Boys Blues
TTITLE16=Stevie Ray Vaughan And Double Trouble - Flood Down in Texas
TTITLE17=Anson Funderburgh and The Rockets - Changing Neighborhoods
EXTD=YEAR: 1992
EXTT0=
EXTT1=
EXTT2=
EXTT3=
EXTT4=
EXTT5=
EXTT6=
EXTT7=
EXTT8=
EXTT9=
EXTT10=
EXTT11=
EXTT12=
EXTT13=
EXTT14=
EXTT15=
EXTT16=
EXTT17=
PLAYORDER=
